<svg height="512" viewBox="0 0 512 512" width="512" xmlns="http://www.w3.org/2000/svg"><path d="m200 496a40.045 40.045 0 0 1 -40-40v-8a16 16 0 0 1 32 0v8a8 8 0 0 0 16 0v-88a16 16 0 0 1 32 0v88a40.045 40.045 0 0 1 -40 40z" fill="#6ea5d7"/><path d="m312 496a40.045 40.045 0 0 1 -40-40v-88a16 16 0 0 1 32 0v88a8 8 0 0 0 16 0v-8a16 16 0 0 1 32 0v8a40.045 40.045 0 0 1 -40 40z" fill="#6ea5d7"/><path d="m392 328h-48a40.045 40.045 0 0 1 -40-40v-16a16 16 0 0 1 32 0v16a8.009 8.009 0 0 0 8 8h48a8.009 8.009 0 0 0 8-8v-54.059a7.948 7.948 0 0 0 -2.343-5.657l-24.97-24.97a16 16 0 0 1 -4.687-11.314v-32a32.036 32.036 0 0 1 32-32h16a32.036 32.036 0 0 1 32 32 16 16 0 0 1 -32 0h-16v25.373l20.284 20.284a39.738 39.738 0 0 1 11.716 28.284v54.059a40.045 40.045 0 0 1 -40 40z" fill="#d73228"/><path d="m168 328h-48a40.045 40.045 0 0 1 -40-40v-54.059a39.738 39.738 0 0 1 11.716-28.284l20.284-20.284v-25.373h-16a16 16 0 0 1 -32 0 32.036 32.036 0 0 1 32-32h16a32.036 32.036 0 0 1 32 32v32a16 16 0 0 1 -4.687 11.314l-24.97 24.97a7.948 7.948 0 0 0 -2.343 5.657v54.059a8.009 8.009 0 0 0 8 8h48a8.009 8.009 0 0 0 8-8v-16a16 16 0 0 1 32 0v16a40.045 40.045 0 0 1 -40 40z" fill="#d73228"/><path d="m208 288h96v48h-96z" fill="#d73228"/><path d="m208 312h45.333v24h-45.333z" fill="#f05a4b"/><rect fill="#f0915a" height="32" rx="16" width="128" x="192" y="336"/><path d="m208 336h45.333a0 0 0 0 1 0 0v16a0 0 0 0 1 0 0h-61.333a0 0 0 0 1 0 0 16 16 0 0 1 16-16z" fill="#fab991"/><path d="m240 368h32a0 0 0 0 1 0 0v112a16 16 0 0 1 -16 16 16 16 0 0 1 -16-16v-112a0 0 0 0 1 0 0z" fill="#647dbe"/><g fill="#6ea5d7"><rect height="64" rx="16" width="32" x="240" y="432"/><circle cx="336" cy="400" r="16"/><circle cx="392" cy="424" r="24"/><circle cx="120" cy="424" r="24"/><circle cx="176" cy="400" r="16"/></g><path d="m320 16h-128a163.882 163.882 0 0 0 -48 115.882v92.118a64 64 0 0 0 64 64h96a64 64 0 0 0 64-64v-92.118a163.882 163.882 0 0 0 -48-115.882z" fill="#fab991"/><path d="m320 16h-64v272h48a64 64 0 0 0 64-64v-92.118a163.882 163.882 0 0 0 -48-115.882z" fill="#f0915a"/><path d="m144 136h224v88h-224z" fill="#f05a4b"/><path d="m256 136h112v88h-112z" fill="#d73228"/><path d="m144 224h112a0 0 0 0 1 0 0v64a0 0 0 0 1 0 0h-48a64 64 0 0 1 -64-64 0 0 0 0 1 0 0z" fill="#f0915a"/><circle cx="256" cy="180" fill="#463c4b" r="20"/><circle cx="318.667" cy="180" fill="#32283c" r="20"/><circle cx="192" cy="180" fill="#463c4b" r="20"/><path d="m256 160v40a20 20 0 0 0 0-40z" fill="#32283c"/></svg>