<svg height="512" viewBox="0 0 512 512" width="512" xmlns="http://www.w3.org/2000/svg"><path d="m184 336h144a0 0 0 0 1 0 0v96a32 32 0 0 1 -32 32h-80a32 32 0 0 1 -32-32v-96a0 0 0 0 1 0 0z" fill="#a55523"/><path d="m144 160v136a40 40 0 0 0 40 40 40 40 0 0 1 40 40v88h64v-88a40 40 0 0 1 40-40 40 40 0 0 0 40-40v-136z" fill="#d26e28"/><path d="m240 160v-64a80 80 0 0 0 -80-80h-48a80 80 0 0 0 -80 80v112a48 48 0 0 0 48 48 16 16 0 0 0 16-16 16 16 0 0 0 -16-16v-96a32 32 0 0 1 32-32 32 32 0 0 1 32 32v32z" fill="#32283c"/><path d="m272 160v-64a80 80 0 0 1 80-80h48a80 80 0 0 1 80 80v112a48 48 0 0 1 -48 48 16 16 0 0 1 -16-16 16 16 0 0 1 16-16v-96a32 32 0 0 0 -32-32 32 32 0 0 0 -32 32v32z" fill="#32283c"/><path d="m368 160h-224v48a16 16 0 0 0 16 16h32a32 32 0 0 1 32 32v208h64v-208a32 32 0 0 1 32-32h32a16 16 0 0 0 16-16z" fill="#eb963c"/><path d="m240 432h32a16 16 0 0 1 16 16v16a0 0 0 0 1 0 0h-64a0 0 0 0 1 0 0v-16a16 16 0 0 1 16-16z" fill="#ebcd9b"/><path d="m224 464h64a0 0 0 0 1 0 0v16a16 16 0 0 1 -16 16h-32a16 16 0 0 1 -16-16v-16a0 0 0 0 1 0 0z" fill="#d26e28"/><circle cx="192" cy="256" fill="#32283c" r="16"/><circle cx="320" cy="256" fill="#32283c" r="16"/><path d="m144 160v-112a32 32 0 0 0 -32-32h48a80 80 0 0 1 80 80v64z" fill="#5a5a73"/><path d="m368 160v-112a32 32 0 0 1 32-32h-48a80 80 0 0 0 -80 80v64z" fill="#5a5a73"/><path d="m80 160h64a0 0 0 0 1 0 0v48a0 0 0 0 1 0 0h-32a32 32 0 0 1 -32-32v-16a0 0 0 0 1 0 0z" fill="#d26e28"/><path d="m400 160h32a0 0 0 0 1 0 0v48a0 0 0 0 1 0 0h-64a0 0 0 0 1 0 0v-16a32 32 0 0 1 32-32z" fill="#d26e28" transform="matrix(-1 0 0 -1 800 368)"/><g fill="#32283c"><path d="m242.667 448a8 8 0 0 1 8 8v8a0 0 0 0 1 0 0h-16a0 0 0 0 1 0 0v-8a8 8 0 0 1 8-8z"/><path d="m269.333 448a8 8 0 0 1 8 8v8a0 0 0 0 1 0 0h-16a0 0 0 0 1 0 0v-8a8 8 0 0 1 8-8z"/></g></svg>