<svg height="512" viewBox="0 0 512 512" width="512" xmlns="http://www.w3.org/2000/svg"><path d="m432 144h32a0 0 0 0 1 0 0v112a32 32 0 0 1 -32 32h-32a0 0 0 0 1 0 0v-112a32 32 0 0 1 32-32z" fill="#d73228" transform="matrix(-1 0 0 -1 864 432)"/><path d="m464 144h-120v-32a16 16 0 0 0 -16-16h-56a48 48 0 0 1 48-48h48a96 96 0 0 1 96 96z" fill="#f05a4b"/><path d="m304 112h8a32 32 0 0 1 32 32 0 0 0 0 1 0 0h-40a0 0 0 0 1 0 0v-32a0 0 0 0 1 0 0z" fill="#d73228" transform="matrix(-1 0 0 -1 648 256)"/><path d="m48 144h32a32 32 0 0 1 32 32v112a0 0 0 0 1 0 0h-32a32 32 0 0 1 -32-32v-112a0 0 0 0 1 0 0z" fill="#d73228"/><path d="m80 304v32h64v32h-64a32 32 0 0 1 -32-32 32 32 0 0 1 32-32z" fill="#eb463c"/><path d="m208 400v32h-96v32a32 32 0 0 1 -32-32 32 32 0 0 1 32-32z" fill="#eb463c"/><path d="m208 368v32h-160v32a32 32 0 0 1 -32-32 32 32 0 0 1 32-32z" fill="#d73228"/><path d="m432 304v32h-64v32h64a32 32 0 0 0 32-32 32 32 0 0 0 -32-32z" fill="#eb463c"/><path d="m304 400v32h96v32a32 32 0 0 0 32-32 32 32 0 0 0 -32-32z" fill="#eb463c"/><path d="m304 368v32h160v32a32 32 0 0 0 32-32 32 32 0 0 0 -32-32z" fill="#d73228"/><path d="m160 192h192a64 64 0 0 1 64 64v56a24 24 0 0 1 -24 24h-24v40a56 56 0 0 1 -56 56h-112a56 56 0 0 1 -56-56v-40h-24a24 24 0 0 1 -24-24v-56a64 64 0 0 1 64-64z" fill="#f05a4b"/><circle cx="224" cy="192" fill="#32283c" r="16"/><circle cx="288" cy="192" fill="#32283c" r="16"/><rect fill="#f58773" height="160" rx="16" width="32" x="288" y="240"/><rect fill="#f58773" height="160" rx="16" width="32" x="192" y="240"/><path d="m48 144h120v-32a16 16 0 0 1 16-16h56a48 48 0 0 0 -48-48h-48a96 96 0 0 0 -96 96z" fill="#f05a4b"/><path d="m168 112h40a0 0 0 0 1 0 0 32 32 0 0 1 -32 32h-8a0 0 0 0 1 0 0v-32a0 0 0 0 1 0 0z" fill="#d73228"/></svg>