<svg height="512" viewBox="0 0 512 512" width="512" xmlns="http://www.w3.org/2000/svg"><path d="m288 464v-48h-64v16a64 64 0 0 0 64 64 16 16 0 0 0 16-16 16 16 0 0 0 -16-16z" fill="#facda0"/><path d="m224 336h64a0 0 0 0 1 0 0v96a16 16 0 0 1 -16 16h-32a16 16 0 0 1 -16-16v-96a0 0 0 0 1 0 0z" fill="#73645a"/><path d="m128 128h256v128a32 32 0 0 1 -32 32 32 32 0 0 0 -32 32v64a32 32 0 0 1 -32 32h-64a32 32 0 0 1 -32-32v-64a32 32 0 0 0 -32-32 32 32 0 0 1 -32-32z" fill="#c39b69"/><path d="m128 128h256v32a16 16 0 0 1 -16 16h-48a32 32 0 0 0 -32 32v128h-64v-128a32 32 0 0 0 -32-32h-48a16 16 0 0 1 -16-16z" fill="#facda0"/><path d="m96 40a24 24 0 0 0 24 24h8v64h64v-48a64 64 0 0 0 -64-64h-8a24 24 0 0 0 -24 24z" fill="#d26e28"/><path d="m416 40a24 24 0 0 1 -24 24h-8v64h-64v-48a64 64 0 0 1 64-64h8a24 24 0 0 1 24 24z" fill="#d26e28"/><g fill="#32283c"><circle cx="192" cy="208" r="16"/><circle cx="320" cy="208" r="16"/><path d="m256 384a31.994 31.994 0 0 1 32-31.99v-16.01h-64v16.01a31.994 31.994 0 0 1 32 31.99z"/></g><path d="m416 128h32a0 0 0 0 1 0 0v48a0 0 0 0 1 0 0h-64a0 0 0 0 1 0 0v-16a32 32 0 0 1 32-32z" fill="#73645a" transform="matrix(-1 0 0 -1 832 304)"/><path d="m64 128h64a0 0 0 0 1 0 0v48a0 0 0 0 1 0 0h-32a32 32 0 0 1 -32-32v-16a0 0 0 0 1 0 0z" fill="#73645a"/></svg>