<svg height="512" viewBox="0 0 512 512" width="512" xmlns="http://www.w3.org/2000/svg"><path d="m184.005 248a8 8 0 0 1 -7.3-4.719l-64.705-143.781-64.7 143.783a8 8 0 0 1 -14.59-6.566l79.29-176.212 79.3 176.212a8 8 0 0 1 -7.295 11.283z" fill="#55525b"/><path d="m32 240h160a16 16 0 0 1 16 16v1a63 63 0 0 1 -63 63h-66a63 63 0 0 1 -63-63v-1a16 16 0 0 1 16-16z" fill="#fabe19"/><path d="m208 256h-80a16 16 0 0 0 -16 16v32a16 16 0 0 1 -16 16h49a63 63 0 0 0 63-63z" fill="#f5871e"/><path d="m472.005 248a8 8 0 0 1 -7.3-4.719l-64.705-143.781-64.7 143.783a8 8 0 1 1 -14.59-6.566l79.29-176.212 79.3 176.212a8 8 0 0 1 -7.295 11.283z" fill="#55525b"/><path d="m112 64h120v32h-120z" fill="#f5871e" transform="matrix(-1 0 0 -1 344 160)"/><path d="m112 64h120v16h-120z" fill="#fabe19" transform="matrix(-1 0 0 -1 344 144)"/><circle cx="112" cy="80" fill="#fabe19" r="32"/><circle cx="112" cy="80" fill="#f5871e" r="16"/><path d="m280 64h120v32h-120z" fill="#f5871e"/><path d="m280 64h120v16h-120z" fill="#fabe19"/><path d="m152 432h208a24 24 0 0 1 24 24v16a8 8 0 0 1 -8 8h-240a8 8 0 0 1 -8-8v-16a24 24 0 0 1 24-24z" fill="#fabe19"/><path d="m232 80h48v352h-48z" fill="#f5871e"/><path d="m232 160h16a8 8 0 0 1 8 8v264a0 0 0 0 1 0 0h-24a0 0 0 0 1 0 0v-272a0 0 0 0 1 0 0z" fill="#fabe19"/><circle cx="256" cy="80" fill="#fabe19" r="48"/><circle cx="256" cy="80" fill="#f5871e" r="24"/><circle cx="400" cy="80" fill="#fabe19" r="32"/><circle cx="400" cy="80" fill="#f5871e" r="16"/><path d="m256 456h128a0 0 0 0 1 0 0v16a8 8 0 0 1 -8 8h-120a0 0 0 0 1 0 0v-24a0 0 0 0 1 0 0z" fill="#f5871e"/><path d="m320 240h160a16 16 0 0 1 16 16v1a63 63 0 0 1 -63 63h-66a63 63 0 0 1 -63-63v-1a16 16 0 0 1 16-16z" fill="#fabe19"/><path d="m496 256h-80a16 16 0 0 0 -16 16v32a16 16 0 0 1 -16 16h49a63 63 0 0 0 63-63z" fill="#f5871e"/></svg>