<svg height="512" viewBox="0 0 512 512" width="512" xmlns="http://www.w3.org/2000/svg"><path d="m272 48h-96a160 160 0 0 0 -160 160h288v-128a32 32 0 0 0 -32-32z" fill="#f05a4b"/><path d="m304 80h16a64 64 0 0 1 64 64 64 64 0 0 1 -64 64h-16a0 0 0 0 1 0 0v-128a0 0 0 0 1 0 0z" fill="#f05a4b"/><path d="m304 80h-128a128 128 0 0 0 -128 128v48h32a48 48 0 0 1 48-48h176z" fill="#d73228"/><path d="m112 288v26.078a5.923 5.923 0 0 1 -5.922 5.922 5.923 5.923 0 0 1 -3.7-1.3l-38.378-30.7-38.378 30.7a5.923 5.923 0 0 1 -3.7 1.3 5.923 5.923 0 0 1 -5.922-5.922v-26.078a32 32 0 0 1 32-32h32a32 32 0 0 1 32 32z" fill="#f05a4b"/><path d="m256 208h48a0 0 0 0 1 0 0 48 48 0 0 1 -48 48 0 0 0 0 1 0 0v-48a0 0 0 0 1 0 0z" fill="#f05a4b"/><circle cx="336" cy="128" fill="#32283c" r="16"/><path d="m256 104v80a40 40 0 0 1 0-80z" fill="#f05a4b"/><path d="m240 464h96a160 160 0 0 0 160-160h-288v128a32 32 0 0 0 32 32z" fill="#6ea5d7"/><path d="m128 304h16a64 64 0 0 1 64 64 64 64 0 0 1 -64 64h-16a0 0 0 0 1 0 0v-128a0 0 0 0 1 0 0z" fill="#6ea5d7" transform="matrix(-1 0 0 -1 336 736)"/><path d="m208 432h128a128 128 0 0 0 128-128v-48h-32a48 48 0 0 1 -48 48h-176z" fill="#647dbe"/><path d="m400 224v-26.078a5.923 5.923 0 0 1 5.922-5.922 5.923 5.923 0 0 1 3.7 1.3l38.378 30.7 38.378-30.7a5.923 5.923 0 0 1 3.7-1.3 5.923 5.923 0 0 1 5.922 5.922v26.078a32 32 0 0 1 -32 32h-32a32 32 0 0 1 -32-32z" fill="#6ea5d7"/><path d="m208 256h48a0 0 0 0 1 0 0 48 48 0 0 1 -48 48 0 0 0 0 1 0 0v-48a0 0 0 0 1 0 0z" fill="#6ea5d7" transform="matrix(-1 0 0 -1 464 560)"/><circle cx="176" cy="384" fill="#32283c" r="16"/><path d="m256 408v-80a40 40 0 0 1 0 80z" fill="#6ea5d7"/></svg>