<svg height="512" viewBox="0 0 512 512" width="512" xmlns="http://www.w3.org/2000/svg"><path d="m256 460a12 12 0 0 1 -9.031-4.1l-224-256a12 12 0 0 1 18.062-15.8l214.969 245.677 214.969-245.677a12 12 0 1 1 18.062 15.8l-224 256a12 12 0 0 1 -9.031 4.1z" fill="#5a5a73"/><path d="m284.8 493.6-28.8-21.6v-104h16l28.8 21.6a8 8 0 0 1 3.2 6.4v88a12 12 0 0 1 -12 12 12 12 0 0 1 -7.2-2.4z" fill="#329682"/><path d="m227.2 493.6 28.8-21.6v-104h-16l-28.8 21.6a8 8 0 0 0 -3.2 6.4v88a12 12 0 0 0 12 12 12 12 0 0 0 7.2-2.4z" fill="#82cdaa"/><path d="m240 80h16v288h-16z" fill="#f5871e"/><path d="m256 80h16v288h-16z" fill="#d24605"/><path d="m496 206.667a50.3 50.3 0 0 1 -35.8-14.829l-48.215-48.214a66.557 66.557 0 0 0 -47.375-19.624h-.61v20a44.049 44.049 0 0 1 -44 44 12 12 0 0 1 0-24 20.023 20.023 0 0 0 20-20v-24a20.023 20.023 0 0 1 20-20h4.61a90.406 90.406 0 0 1 64.347 26.653l48.215 48.215a26.454 26.454 0 0 0 18.828 7.8 12 12 0 0 1 0 24z" fill="#d24605"/><path d="m16 206.667a12 12 0 0 1 0-24 26.454 26.454 0 0 0 18.828-7.8l48.215-48.215a90.406 90.406 0 0 1 64.347-26.652h4.61a20.023 20.023 0 0 1 20 20v24a20.023 20.023 0 0 0 20 20 12 12 0 0 1 0 24 44.049 44.049 0 0 1 -44-44v-20h-.61a66.557 66.557 0 0 0 -47.376 19.624l-48.214 48.214a50.3 50.3 0 0 1 -35.8 14.829z" fill="#d24605"/><path d="m224 152h64v48h-64z" fill="#82cdaa"/><g fill="#329682"><path d="m224 176h64v24h-64z"/><rect height="80" rx="16" width="32" x="288" y="136"/><rect height="80" rx="16" width="32" x="192" y="136"/></g><path d="m256 16h3.314a11.314 11.314 0 0 1 8 3.314l41.372 41.372a11.314 11.314 0 0 1 3.314 8 11.313 11.313 0 0 1 -11.314 11.314h-44.686z" fill="#463c4b"/><path d="m256 16h-3.314a11.314 11.314 0 0 0 -8 3.314l-41.372 41.372a11.314 11.314 0 0 0 -3.314 8 11.313 11.313 0 0 0 11.314 11.314h44.686z" fill="#5a5a73"/></svg>