<svg height="512" viewBox="0 0 512 512" width="512" xmlns="http://www.w3.org/2000/svg"><g fill="#463c4b"><path d="m304 496h-16a64.072 64.072 0 0 1 -64-64v-48a32 32 0 0 1 64 0v48h16a32 32 0 0 1 64 0 64.072 64.072 0 0 1 -64 64z"/><path d="m192 192a15.948 15.948 0 0 1 -11.313-4.686l-32-32a16 16 0 0 1 -4.687-11.314v-32a16 16 0 0 1 32 0v25.373l27.313 27.313a16 16 0 0 1 -11.313 27.314z"/><path d="m320 192a16 16 0 0 1 -11.313-27.314l27.313-27.313v-25.373a16 16 0 0 1 32 0v32a16 16 0 0 1 -4.687 11.314l-32 32a15.948 15.948 0 0 1 -11.313 4.686z"/><path d="m368 384v-32h-48v-32h48a32 32 0 0 1 32 32 32 32 0 0 1 -32 32z"/><path d="m144 384v-32h48v-32h-48a32 32 0 0 0 -32 32 32 32 0 0 0 32 32z"/></g><path d="m368 320v-32h-48v-32h48a32 32 0 0 1 32 32 32 32 0 0 1 -32 32z" fill="#32283c"/><path d="m144 320v-32h48v-32h-48a32 32 0 0 0 -32 32 32 32 0 0 0 32 32z" fill="#32283c"/><path d="m368 256v-32h-48v-32h48a32 32 0 0 1 32 32 32 32 0 0 1 -32 32z" fill="#463c4b"/><path d="m144 256v-32h48v-32h-48a32 32 0 0 0 -32 32 32 32 0 0 0 32 32z" fill="#463c4b"/><path d="m208 160h96a32 32 0 0 1 32 32v144a48 48 0 0 1 -48 48h-64a48 48 0 0 1 -48-48v-144a32 32 0 0 1 32-32z" fill="#5a5a73"/><circle cx="276" cy="188" fill="#32283c" r="12"/><circle cx="236" cy="188" fill="#32283c" r="12"/><path d="m248 136a0 0 0 0 1 0 0v24a0 0 0 0 1 0 0h-24a0 0 0 0 1 0 0 24 24 0 0 1 24-24z" fill="#32283c"/><path d="m264 136h24a0 0 0 0 1 0 0v24a0 0 0 0 1 0 0 24 24 0 0 1 -24-24 0 0 0 0 1 0 0z" fill="#32283c" transform="matrix(-1 0 0 -1 552 296)"/><path d="m352 16v48h-40v24a40 40 0 0 0 40 40 40 40 0 0 0 40-40v-32a40 40 0 0 0 -40-40z" fill="#5a5a73"/><path d="m336 40a0 0 0 0 1 0 0v24a0 0 0 0 1 0 0h-24a0 0 0 0 1 0 0 24 24 0 0 1 24-24z" fill="#463c4b"/><path d="m160 16v48h40v24a40 40 0 0 1 -40 40 40 40 0 0 1 -40-40v-32a40 40 0 0 1 40-40z" fill="#5a5a73"/><path d="m176 40h24a0 0 0 0 1 0 0v24a0 0 0 0 1 0 0 24 24 0 0 1 -24-24 0 0 0 0 1 0 0z" fill="#463c4b" transform="matrix(-1 0 0 -1 376 104)"/><path d="m176 224h160v96h-160z" fill="#463c4b"/><path d="m336 376v24a32 32 0 1 0 32 32v-24a32 32 0 0 0 -32-32z" fill="#5a5a73"/></svg>