<svg height="512" viewBox="0 0 512 512" width="512" xmlns="http://www.w3.org/2000/svg"><path d="m16 30.667a16 16 0 0 0 16 16h16v144a64 64 0 0 0 64 64h16v-96h-16a16 16 0 0 1 -16-16v-80a48 48 0 0 0 -48-48h-16a16 16 0 0 0 -16 16z" fill="#32283c"/><path d="m496 30.667a16 16 0 0 1 -16 16h-16v144a64 64 0 0 1 -64 64h-16v-96h16a16 16 0 0 0 16-16v-80a48 48 0 0 1 48-48h16a16 16 0 0 1 16 16z" fill="#32283c"/><path d="m128 158.667v192a32 32 0 0 0 32 32 32 32 0 0 1 32 32v58.666a24 24 0 0 0 24 24h80a24 24 0 0 0 24-24v-58.666a32 32 0 0 1 32-32 32 32 0 0 0 32-32v-192z" fill="#be322d"/><path d="m128 158.667v72a24 24 0 0 0 24 24h32a32 32 0 0 1 32 32v144h80v-144a32 32 0 0 1 32-32h32a24 24 0 0 0 24-24v-72z" fill="#f0505a"/><rect fill="#f9c2c9" height="66.667" rx="24" width="128" x="192" y="430.667"/><g fill="#32283c"><path d="m228 462.667a12 12 0 0 1 12 12v22.667a0 0 0 0 1 0 0h-24a0 0 0 0 1 0 0v-22.667a12 12 0 0 1 12-12z"/><path d="m284 462.667a12 12 0 0 1 12 12v22.667a0 0 0 0 1 0 0h-24a0 0 0 0 1 0 0v-22.667a12 12 0 0 1 12-12z"/><circle cx="184" cy="286.667" r="16"/><circle cx="328" cy="286.667" r="16"/></g><path d="m64 254.667h64a0 0 0 0 1 0 0v48a0 0 0 0 1 0 0h-48a32 32 0 0 1 -32-32 16 16 0 0 1 16-16z" fill="#f0505a"/><path d="m416 254.667h48a0 0 0 0 1 0 0v48a0 0 0 0 1 0 0h-64a16 16 0 0 1 -16-16 32 32 0 0 1 32-32z" fill="#f0505a" transform="matrix(-1 0 0 -1 848 557.333)"/><rect fill="#be322d" height="48" rx="16" width="192" x="160" y="134.667"/></svg>