<svg height="512" viewBox="0 0 512 512" width="512" xmlns="http://www.w3.org/2000/svg"><path d="m120 488h136v-464h-64a64 64 0 0 0 -64 64v39.432a136.567 136.567 0 0 1 -40 96.568 136.567 136.567 0 0 0 -40 96.568v95.432a72 72 0 0 0 72 72z" fill="#f06423"/><path d="m392 488h-136v-464h64a64 64 0 0 1 64 64v39.432a136.567 136.567 0 0 0 40 96.568 136.567 136.567 0 0 1 40 96.568v95.432a72 72 0 0 1 -72 72z" fill="#d24605"/><path d="m160 184h192v192h-192z" fill="#8d371e"/><path d="m224 344h64v32h-64z" fill="#f0915a"/><path d="m160 376h192v112h-192z" fill="#f0915a"/><path d="m120 376h40a0 0 0 0 1 0 0v72a40 40 0 0 1 -40 40 0 0 0 0 1 0 0v-112a0 0 0 0 1 0 0z" fill="#fab991" transform="matrix(-1 0 0 -1 280 864)"/><path d="m352 376a40 40 0 0 1 40 40v72a0 0 0 0 1 0 0h-40a0 0 0 0 1 0 0v-112a0 0 0 0 1 0 0z" fill="#fab991"/><path d="m160 440h112a48 48 0 0 0 48-48v-16h32v112h-192z" fill="#784687"/><path d="m288 184a32 32 0 0 1 -32-32 32 32 0 0 1 -32 32h-64v96a64 64 0 0 0 64 64h64a64 64 0 0 0 64-64v-96z" fill="#fab991"/><circle cx="224" cy="232" fill="#32283c" r="16"/><circle cx="288" cy="232" fill="#32283c" r="16"/><path d="m128 88h256v32h-256z" fill="#8c5aa5"/><path d="m256 88h128v32h-128z" fill="#784687"/><path d="m256 296a16 16 0 0 1 16 16 0 0 0 0 1 0 0h-32a0 0 0 0 1 0 0 16 16 0 0 1 16-16z" fill="#32283c" transform="matrix(-1 0 0 -1 512 608)"/></svg>